<?xml version="1.0" encoding="UTF-8" standalone="no"?>
<svg
   xmlns:dc="http://purl.org/dc/elements/1.1/"
   xmlns:cc="http://creativecommons.org/ns#"
   xmlns:rdf="http://www.w3.org/1999/02/22-rdf-syntax-ns#"
   xmlns:svg="http://www.w3.org/2000/svg"
   xmlns="http://www.w3.org/2000/svg"
   version="1.1"
   width="343.07538mm"
   height="116.7254mm"
   viewBox="0 0 1215.6225 413.59427"
   id="svg26">
  <metadata
     id="metadata32">
    <rdf:RDF>
      <cc:Work
         rdf:about="">
        <dc:format>image/svg+xml</dc:format>
        <dc:type
           rdf:resource="http://purl.org/dc/dcmitype/StillImage" />
        <dc:title></dc:title>
      </cc:Work>
    </rdf:RDF>
  </metadata>
  <defs
     id="defs30" />
  <!-- Front-->
  <!-- Back-->
  <g
     transform="translate(454.82884,3.5883101)"
     id="g8"
     style="stroke-width:0.09000008;stroke-miterlimit:4;stroke-dasharray:none;fill:#000000">
    <polygon
       style="fill:#000000;stroke:#000000;stroke-width:0.09000008;stroke-miterlimit:4;stroke-dasharray:none"
       points="28.65652,11.250009 57.313039,11.250009 57.313039,0 75.029589,0 75.029589,11.250009 92.746139,11.250009 92.746139,0 110.46269,0 110.46269,11.250009 128.17924,11.250009 128.17924,0 145.89579,0 145.89579,11.250009 163.61234,11.250009 163.61234,0 181.32889,0 181.32889,11.250009 199.04544,11.250009 199.04544,0 216.76199,0 216.76199,11.250009 234.47854,11.250009 234.47854,0 252.19509,0 252.19509,11.250009 269.91164,11.250009 269.91164,0 287.62819,0 287.62819,11.250009 305.34474,11.250009 305.34474,0 323.06129,0 323.06129,11.250009 340.77784,11.250009 340.77784,0 358.49439,0 358.49439,11.250009 376.21094,11.250009 376.21094,0 393.92749,0 393.92749,11.250009 422.58401,11.250009 422.58401,0 451.24053,0 451.24053,20.090568 439.99052,20.090568 439.99052,40.181135 451.24053,40.181135 451.24053,60.271703 439.99052,60.271703 439.99052,80.362271 451.24053,80.362271 451.24053,100.45284 422.58401,100.45284 422.58401,89.202829 393.92749,89.202829 393.92749,100.45284 376.21094,100.45284 376.21094,89.202829 358.49439,89.202829 358.49439,100.45284 340.77784,100.45284 340.77784,89.202829 323.06129,89.202829 323.06129,100.45284 305.34474,100.45284 305.34474,89.202829 287.62819,89.202829 287.62819,100.45284 269.91164,100.45284 269.91164,89.202829 252.19509,89.202829 252.19509,100.45284 234.47854,100.45284 234.47854,89.202829 216.76199,89.202829 216.76199,100.45284 199.04544,100.45284 199.04544,89.202829 181.32889,89.202829 181.32889,100.45284 163.61234,100.45284 163.61234,89.202829 145.89579,89.202829 145.89579,100.45284 128.17924,100.45284 128.17924,89.202829 110.46269,89.202829 110.46269,100.45284 92.746139,100.45284 92.746139,89.202829 75.029589,89.202829 75.029589,100.45284 57.313039,100.45284 57.313039,89.202829 28.65652,89.202829 28.65652,100.45284 0,100.45284 0,80.362271 11.250009,80.362271 11.250009,60.271703 0,60.271703 0,40.181135 11.250009,40.181135 11.250009,20.090568 0,20.090568 0,0 28.65652,0 "
       id="polygon6" />
  </g>
  <!-- Left-->
  <!-- Right-->
  <g
     transform="translate(906.06937,104.04115)"
     id="g16"
     style="stroke-width:0.09000008;stroke-miterlimit:4;stroke-dasharray:none;fill:#000000;fill-opacity:1">
    <polygon
       style="fill:#000000;stroke:#000000;stroke-width:0.09000008;stroke-miterlimit:4;stroke-dasharray:none;fill-opacity:1"
       points="27.770692,11.250009 55.541384,11.250009 55.541384,0 73.257934,0 73.257934,11.250009 90.974484,11.250009 90.974484,0 108.69103,0 108.69103,11.250009 126.40758,11.250009 126.40758,0 144.12413,0 144.12413,11.250009 161.84068,11.250009 161.84068,0 179.55723,0 179.55723,11.250009 197.27378,11.250009 197.27378,0 214.99033,0 214.99033,11.250009 232.70688,11.250009 232.70688,0 250.42343,0 250.42343,11.250009 278.19413,11.250009 278.19413,0 294.71481,0 294.71481,20.090568 305.96482,20.090568 305.96482,40.181135 294.71481,40.181135 294.71481,60.271703 305.96482,60.271703 305.96482,80.362271 294.71481,80.362271 294.71481,100.45284 278.19413,100.45284 278.19413,89.202829 250.42343,89.202829 250.42343,100.45284 232.70688,100.45284 232.70688,89.202829 214.99033,89.202829 214.99033,100.45284 197.27378,100.45284 197.27378,89.202829 179.55723,89.202829 179.55723,100.45284 161.84068,100.45284 161.84068,89.202829 144.12413,89.202829 144.12413,100.45284 126.40758,100.45284 126.40758,89.202829 108.69103,89.202829 108.69103,100.45284 90.974484,100.45284 90.974484,89.202829 73.257934,89.202829 73.257934,100.45284 55.541384,100.45284 55.541384,89.202829 27.770692,89.202829 27.770692,100.45284 11.250009,100.45284 11.250009,80.362271 0,80.362271 0,60.271703 11.250009,60.271703 11.250009,40.181135 0,40.181135 0,20.090568 11.250009,20.090568 11.250009,0 27.770692,0 "
       id="polygon14" />
  </g>
  <!-- Top-->
  <!-- Bottom-->
  <g
     transform="translate(454.82884,104.04115)"
     id="g24"
     style="stroke-width:0.09000008;stroke-miterlimit:4;stroke-dasharray:none;fill:#000000;fill-opacity:1">
    <polygon
       style="fill:#000000;stroke:#000000;stroke-width:0.09000008;stroke-miterlimit:4;stroke-dasharray:none;fill-opacity:1"
       points="28.65652,0 57.313039,0 57.313039,11.250009 75.029589,11.250009 75.029589,0 92.746139,0 92.746139,11.250009 110.46269,11.250009 110.46269,0 128.17924,0 128.17924,11.250009 145.89579,11.250009 145.89579,0 163.61234,0 163.61234,11.250009 181.32889,11.250009 181.32889,0 199.04544,0 199.04544,11.250009 216.76199,11.250009 216.76199,0 234.47854,0 234.47854,11.250009 252.19509,11.250009 252.19509,0 269.91164,0 269.91164,11.250009 287.62819,11.250009 287.62819,0 305.34474,0 305.34474,11.250009 323.06129,11.250009 323.06129,0 340.77784,0 340.77784,11.250009 358.49439,11.250009 358.49439,0 376.21094,0 376.21094,11.250009 393.92749,11.250009 393.92749,0 422.58401,0 422.58401,11.250009 439.99052,11.250009 439.99052,27.770692 451.24053,27.770692 451.24053,55.541384 439.99052,55.541384 439.99052,73.257934 451.24053,73.257934 451.24053,90.974484 439.99052,90.974484 439.99052,108.69103 451.24053,108.69103 451.24053,126.40758 439.99052,126.40758 439.99052,144.12413 451.24053,144.12413 451.24053,161.84068 439.99052,161.84068 439.99052,179.55723 451.24053,179.55723 451.24053,197.27378 439.99052,197.27378 439.99052,214.99033 451.24053,214.99033 451.24053,232.70688 439.99052,232.70688 439.99052,250.42343 451.24053,250.42343 451.24053,278.19413 439.99052,278.19413 439.99052,294.71481 422.58401,294.71481 422.58401,305.96482 393.92749,305.96482 393.92749,294.71481 376.21094,294.71481 376.21094,305.96482 358.49439,305.96482 358.49439,294.71481 340.77784,294.71481 340.77784,305.96482 323.06129,305.96482 323.06129,294.71481 305.34474,294.71481 305.34474,305.96482 287.62819,305.96482 287.62819,294.71481 269.91164,294.71481 269.91164,305.96482 252.19509,305.96482 252.19509,294.71481 234.47854,294.71481 234.47854,305.96482 216.76199,305.96482 216.76199,294.71481 199.04544,294.71481 199.04544,305.96482 181.32889,305.96482 181.32889,294.71481 163.61234,294.71481 163.61234,305.96482 145.89579,305.96482 145.89579,294.71481 128.17924,294.71481 128.17924,305.96482 110.46269,305.96482 110.46269,294.71481 92.746139,294.71481 92.746139,305.96482 75.029589,305.96482 75.029589,294.71481 57.313039,294.71481 57.313039,305.96482 28.65652,305.96482 28.65652,294.71481 11.250009,294.71481 11.250009,278.19413 0,278.19413 0,250.42343 11.250009,250.42343 11.250009,232.70688 0,232.70688 0,214.99033 11.250009,214.99033 11.250009,197.27378 0,197.27378 0,179.55723 11.250009,179.55723 11.250009,161.84068 0,161.84068 0,144.12413 11.250009,144.12413 11.250009,126.40758 0,126.40758 0,108.69103 11.250009,108.69103 11.250009,90.974484 0,90.974484 0,73.257934 11.250009,73.257934 11.250009,55.541384 0,55.541384 0,27.770692 11.250009,27.770692 11.250009,11.250009 28.65652,11.250009 "
       id="polygon22" />
  </g>
  <text
     xml:space="preserve"
     style="font-style:normal;font-weight:normal;font-size:30.5442px;line-height:1.25;font-family:sans-serif;text-align:center;letter-spacing:0px;word-spacing:0px;text-anchor:middle;fill:#ffffff;fill-opacity:1;stroke:none;stroke-width:0.937501"
     x="680.20844"
     y="64.507759"
     id="text4497"><tspan
       id="tspan4495"
       x="680.20844"
       y="64.507759"
       style="font-style:normal;font-variant:normal;font-weight:normal;font-stretch:normal;font-family:'Segoe UI';-inkscape-font-specification:'Segoe UI';text-align:center;text-anchor:middle;fill:#ffffff;stroke-width:0.937501">SPACE NAME</tspan></text>
  <g
     id="g5206">
    <g
       style="stroke-width:0.09000008;stroke-miterlimit:4;stroke-dasharray:none;fill:#000000;fill-opacity:1"
       id="g12"
       transform="translate(906.06937,3.5883101)">
      <polygon
         id="polygon10"
         points="27.770692,11.250009 55.541384,11.250009 55.541384,0 73.257934,0 73.257934,11.250009 90.974484,11.250009 90.974484,0 108.69103,0 108.69103,11.250009 126.40758,11.250009 126.40758,0 144.12413,0 144.12413,11.250009 161.84068,11.250009 161.84068,0 179.55723,0 179.55723,11.250009 197.27378,11.250009 197.27378,0 214.99033,0 214.99033,11.250009 232.70688,11.250009 232.70688,0 250.42343,0 250.42343,11.250009 278.19413,11.250009 278.19413,0 294.71481,0 294.71481,20.090568 305.96482,20.090568 305.96482,40.181135 294.71481,40.181135 294.71481,60.271703 305.96482,60.271703 305.96482,80.362271 294.71481,80.362271 294.71481,100.45284 278.19413,100.45284 278.19413,89.202829 250.42343,89.202829 250.42343,100.45284 232.70688,100.45284 232.70688,89.202829 214.99033,89.202829 214.99033,100.45284 197.27378,100.45284 197.27378,89.202829 179.55723,89.202829 179.55723,100.45284 161.84068,100.45284 161.84068,89.202829 144.12413,89.202829 144.12413,100.45284 126.40758,100.45284 126.40758,89.202829 108.69103,89.202829 108.69103,100.45284 90.974484,100.45284 90.974484,89.202829 73.257934,89.202829 73.257934,100.45284 55.541384,100.45284 55.541384,89.202829 27.770692,89.202829 27.770692,100.45284 11.250009,100.45284 11.250009,80.362271 0,80.362271 0,60.271703 11.250009,60.271703 11.250009,40.181135 0,40.181135 0,20.090568 11.250009,20.090568 11.250009,0 27.770692,0 "
         style="fill:#000000;stroke:#000000;stroke-width:0.09000008;stroke-miterlimit:4;stroke-dasharray:none;fill-opacity:1" />
    </g>
    <rect
       y="27.195271"
       x="1006.5603"
       height="53.059654"
       width="10.53993"
       id="rect4496-8"
       style="fill:#ffffff;fill-opacity:1;stroke:#000000;stroke-width:0.09000009;stroke-miterlimit:4;stroke-dasharray:none;stroke-opacity:1" />
    <rect
       y="27.195271"
       x="987.8103"
       height="53.059658"
       width="10.53993"
       id="rect4496-4-4"
       style="fill:#ffffff;fill-opacity:1;stroke:#000000;stroke-width:0.0900001;stroke-miterlimit:4;stroke-dasharray:none;stroke-opacity:1" />
    <rect
       y="27.195271"
       x="969.0603"
       height="53.059662"
       width="10.53993"
       id="rect4496-4-3-5"
       style="fill:#ffffff;fill-opacity:1;stroke:#000000;stroke-width:0.09000011;stroke-miterlimit:4;stroke-dasharray:none;stroke-opacity:1" />
    <rect
       y="27.195271"
       x="950.3103"
       height="53.059666"
       width="10.53993"
       id="rect4496-4-3-0-7"
       style="fill:#ffffff;fill-opacity:1;stroke:#000000;stroke-width:0.09000012;stroke-miterlimit:4;stroke-dasharray:none;stroke-opacity:1" />
    <rect
       y="27.195271"
       x="931.5603"
       height="53.059669"
       width="10.53993"
       id="rect4496-4-3-0-2-0"
       style="fill:#ffffff;fill-opacity:1;stroke:#000000;stroke-width:0.09000012;stroke-miterlimit:4;stroke-dasharray:none;stroke-opacity:1" />
    <rect
       y="27.195271"
       x="1100.3103"
       height="53.059658"
       width="10.53993"
       id="rect4496-8-7"
       style="fill:#ffffff;fill-opacity:1;stroke:#000000;stroke-width:0.0900001;stroke-miterlimit:4;stroke-dasharray:none;stroke-opacity:1" />
    <rect
       y="27.195271"
       x="1081.5603"
       height="53.059662"
       width="10.53993"
       id="rect4496-4-4-1"
       style="fill:#ffffff;fill-opacity:1;stroke:#000000;stroke-width:0.09000011;stroke-miterlimit:4;stroke-dasharray:none;stroke-opacity:1" />
    <rect
       y="27.195271"
       x="1062.8103"
       height="53.059666"
       width="10.53993"
       id="rect4496-4-3-5-3"
       style="fill:#ffffff;fill-opacity:1;stroke:#000000;stroke-width:0.09000012;stroke-miterlimit:4;stroke-dasharray:none;stroke-opacity:1" />
    <rect
       y="27.195271"
       x="1044.0603"
       height="53.059669"
       width="10.53993"
       id="rect4496-4-3-0-7-8"
       style="fill:#ffffff;fill-opacity:1;stroke:#000000;stroke-width:0.09000012;stroke-miterlimit:4;stroke-dasharray:none;stroke-opacity:1" />
    <rect
       y="27.195271"
       x="1025.3103"
       height="53.059673"
       width="10.53993"
       id="rect4496-4-3-0-2-0-9"
       style="fill:#ffffff;fill-opacity:1;stroke:#000000;stroke-width:0.09000012;stroke-miterlimit:4;stroke-dasharray:none;stroke-opacity:1" />
    <rect
       y="27.195271"
       x="1175.3103"
       height="53.059662"
       width="10.53993"
       id="rect4496-4-4-6"
       style="fill:#ffffff;fill-opacity:1;stroke:#000000;stroke-width:0.09000011;stroke-miterlimit:4;stroke-dasharray:none;stroke-opacity:1" />
    <rect
       y="27.195271"
       x="1156.5603"
       height="53.059666"
       width="10.53993"
       id="rect4496-4-3-5-4"
       style="fill:#ffffff;fill-opacity:1;stroke:#000000;stroke-width:0.09000012;stroke-miterlimit:4;stroke-dasharray:none;stroke-opacity:1" />
    <rect
       y="27.195271"
       x="1137.8103"
       height="53.059669"
       width="10.53993"
       id="rect4496-4-3-0-7-9"
       style="fill:#ffffff;fill-opacity:1;stroke:#000000;stroke-width:0.09000012;stroke-miterlimit:4;stroke-dasharray:none;stroke-opacity:1" />
    <rect
       y="27.195271"
       x="1119.0603"
       height="53.059673"
       width="10.53993"
       id="rect4496-4-3-0-2-0-3"
       style="fill:#ffffff;fill-opacity:1;stroke:#000000;stroke-width:0.09000012;stroke-miterlimit:4;stroke-dasharray:none;stroke-opacity:1" />
  </g>
  <path
     id="polygon2"
     style="fill:#000000;stroke:#000000;stroke-width:0.096;stroke-miterlimit:4;stroke-dasharray:none"
     d="M 3.828125 3.828125 L 3.828125 25.257812 L 15.828125 25.257812 L 15.828125 46.6875 L 3.828125 46.6875 L 3.828125 68.117188 L 15.828125 68.117188 L 15.828125 89.546875 L 3.828125 89.546875 L 3.828125 110.97852 L 34.394531 110.97852 L 34.394531 98.978516 L 64.962891 98.978516 L 64.962891 110.97852 L 83.859375 110.97852 L 83.859375 98.978516 L 102.75781 98.978516 L 102.75781 110.97852 L 121.6543 110.97852 L 121.6543 98.978516 L 140.55273 98.978516 L 140.55273 110.97852 L 159.44922 110.97852 L 159.44922 98.978516 L 178.34766 98.978516 L 178.34766 110.97852 L 197.24609 110.97852 L 197.24609 98.978516 L 216.14258 98.978516 L 216.14258 110.97852 L 235.04102 110.97852 L 235.04102 98.978516 L 253.9375 98.978516 L 253.9375 110.97852 L 272.83594 110.97852 L 272.83594 98.978516 L 291.73438 98.978516 L 291.73438 110.97852 L 310.63086 110.97852 L 310.63086 98.978516 L 329.5293 98.978516 L 329.5293 110.97852 L 348.42578 110.97852 L 348.42578 98.978516 L 367.32422 98.978516 L 367.32422 110.97852 L 386.22266 110.97852 L 386.22266 98.978516 L 405.11914 98.978516 L 405.11914 110.97852 L 424.01758 110.97852 L 424.01758 98.978516 L 454.58398 98.978516 L 454.58398 110.97852 L 485.15039 110.97852 L 485.15039 89.546875 L 473.15039 89.546875 L 473.15039 68.117188 L 485.15039 68.117188 L 485.15039 46.6875 L 473.15039 46.6875 L 473.15039 25.257812 L 485.15039 25.257812 L 485.15039 3.828125 L 454.58398 3.828125 L 454.58398 15.828125 L 424.01758 15.828125 L 424.01758 3.828125 L 405.11914 3.828125 L 405.11914 15.828125 L 386.22266 15.828125 L 386.22266 3.828125 L 367.32422 3.828125 L 367.32422 15.828125 L 356.46484 15.828125 L 356.46484 52.138672 L 297.69336 52.138672 L 297.69336 3.828125 L 291.73438 3.828125 L 291.73438 15.828125 L 272.83594 15.828125 L 272.83594 3.828125 L 253.9375 3.828125 L 253.9375 15.828125 L 235.04102 15.828125 L 235.04102 3.828125 L 216.14258 3.828125 L 216.14258 15.828125 L 197.24609 15.828125 L 197.24609 3.828125 L 178.34766 3.828125 L 178.34766 15.828125 L 159.44922 15.828125 L 159.44922 3.828125 L 140.55273 3.828125 L 140.55273 15.828125 L 121.6543 15.828125 L 121.6543 3.828125 L 102.75781 3.828125 L 102.75781 15.828125 L 83.859375 15.828125 L 83.859375 3.828125 L 64.962891 3.828125 L 64.962891 15.828125 L 34.394531 15.828125 L 34.394531 3.828125 L 3.828125 3.828125 z M 369.66406 29.007812 L 380.90625 29.007812 L 380.90625 85.605469 L 369.66406 85.605469 L 369.66406 29.007812 z M 389.66406 29.007812 L 400.90625 29.007812 L 400.90625 85.605469 L 389.66406 85.605469 L 389.66406 29.007812 z M 409.66406 29.007812 L 420.90625 29.007812 L 420.90625 85.605469 L 409.66406 85.605469 L 409.66406 29.007812 z M 429.66406 29.007812 L 440.90625 29.007812 L 440.90625 85.605469 L 429.66406 85.605469 L 429.66406 29.007812 z M 449.66406 29.007812 L 460.90625 29.007812 L 460.90625 85.605469 L 449.66406 85.605469 L 449.66406 29.007812 z M 83.611328 31.960938 C 85.476778 31.960938 86.988065 32.562501 88.142578 33.765625 C 89.291014 34.968749 89.865234 36.560115 89.865234 38.541016 C 89.865234 40.564451 89.227212 42.223308 87.951172 43.517578 C 86.669055 44.817924 85.046656 45.46875 83.083984 45.46875 C 81.662111 45.46875 80.468098 45.237196 79.501953 44.775391 L 79.501953 43.080078 C 80.559244 43.748481 81.80968 44.082031 83.255859 44.082031 C 84.720268 44.082031 85.921659 43.578992 86.857422 42.570312 C 87.793185 41.561633 88.259766 40.254556 88.259766 38.650391 C 88.259766 36.997615 87.825954 35.697916 86.957031 34.75 C 86.088108 33.80816 84.908636 33.335938 83.419922 33.335938 C 82.39909 33.335938 81.514974 33.540148 80.767578 33.947266 L 80.767578 37.611328 L 83.630859 37.611328 L 83.630859 38.996094 L 79.236328 38.996094 L 79.236328 33.072266 C 80.548827 32.330947 82.007162 31.960938 83.611328 31.960938 z M 101.37695 31.960938 C 101.58355 31.960938 101.83876 31.979166 102.14258 32.015625 C 102.4464 32.046011 102.75629 32.09332 103.07227 32.160156 C 103.38824 32.220921 103.68902 32.297527 103.97461 32.388672 C 104.25412 32.485894 104.4783 32.59158 104.64844 32.707031 L 104.64844 34.511719 C 104.44184 34.329427 104.19575 34.165364 103.91016 34.019531 C 103.61849 33.873698 103.31402 33.749783 102.99805 33.646484 C 102.676 33.549262 102.35525 33.472656 102.0332 33.417969 C 101.71115 33.363284 101.41211 33.335937 101.13867 33.335938 C 100.19683 33.335938 99.495008 33.509115 99.033203 33.855469 C 98.565322 34.207899 98.332031 34.712892 98.332031 35.369141 C 98.332031 35.721571 98.410373 36.027778 98.568359 36.289062 C 98.720269 36.550347 98.933594 36.787327 99.207031 37 C 99.480469 37.21875 99.804905 37.42665 100.18164 37.621094 C 100.5523 37.821615 100.95334 38.03125 101.38477 38.25 C 101.8405 38.480903 102.26715 38.714193 102.66211 38.951172 C 103.05707 39.188151 103.39974 39.448785 103.69141 39.734375 C 103.98307 40.019965 104.21463 40.342665 104.38477 40.701172 C 104.54883 41.065755 104.63086 41.490452 104.63086 41.976562 C 104.63086 42.572048 104.49957 43.089844 104.23828 43.527344 C 103.977 43.97092 103.63433 44.335504 103.20898 44.621094 C 102.78364 44.906684 102.30056 45.118055 101.75977 45.257812 C 101.21289 45.397569 100.6569 45.46875 100.0918 45.46875 C 98.803603 45.46875 97.8648 45.313802 97.275391 45.003906 L 97.275391 43.28125 C 98.047091 43.815972 99.036894 44.082031 100.24609 44.082031 C 100.5803 44.082031 100.91385 44.045573 101.24805 43.972656 C 101.58225 43.905819 101.88129 43.794708 102.14258 43.636719 C 102.40386 43.478733 102.61524 43.274523 102.7793 43.025391 C 102.94336 42.776259 103.02539 42.471788 103.02539 42.113281 C 103.02539 41.77908 102.96528 41.491102 102.84375 41.248047 C 102.71615 41.004991 102.53016 40.782552 102.28711 40.582031 C 102.04405 40.38151 101.75065 40.188367 101.4043 40 C 101.05187 39.811632 100.64713 39.603732 100.19141 39.378906 C 99.723525 39.148004 99.280599 38.905599 98.861328 38.650391 C 98.442057 38.395183 98.073784 38.11263 97.757812 37.802734 C 97.441841 37.492839 97.192057 37.150174 97.009766 36.773438 C 96.821397 36.396702 96.728516 35.964627 96.728516 35.478516 C 96.728516 34.834419 96.85612 34.287543 97.111328 33.837891 C 97.36046 33.394314 97.699436 33.03342 98.130859 32.753906 C 98.556207 32.474392 99.048394 32.273871 99.607422 32.152344 C 100.16645 32.02474 100.75716 31.960937 101.37695 31.960938 z M 134.2168 31.960938 C 136.07009 31.960938 137.55577 32.571616 138.67383 33.792969 C 139.78581 35.014322 140.3418 36.601998 140.3418 38.558594 C 140.3418 40.661023 139.773 42.338109 138.63672 43.589844 C 137.50044 44.841579 135.95465 45.46875 133.99805 45.46875 C 132.19336 45.46875 130.74045 44.859808 129.64062 43.644531 C 128.53473 42.429255 127.98242 40.841578 127.98242 38.878906 C 127.98242 36.746096 128.54753 35.059895 129.67773 33.820312 C 130.80794 32.58073 132.32097 31.960937 134.2168 31.960938 z M 145.25391 31.960938 C 147.11328 31.960938 148.60265 32.558812 149.7207 33.755859 C 150.83875 34.952907 151.39648 36.524307 151.39648 38.46875 C 151.39648 40.559026 150.76758 42.246963 149.50977 43.535156 C 148.25195 44.82335 146.6569 45.46875 144.72461 45.46875 C 143.48502 45.46875 142.45877 45.288195 141.64453 44.929688 L 141.64453 43.298828 C 142.5803 43.821398 143.61393 44.082031 144.74414 44.082031 C 146.245 44.082031 147.46267 43.580728 148.39844 42.578125 C 149.32812 41.575522 149.79297 40.235676 149.79297 38.558594 C 149.79297 36.966582 149.35915 35.697916 148.49023 34.75 C 147.61523 33.80816 146.46853 33.335938 145.05273 33.335938 C 143.74023 33.335938 142.6046 33.627605 141.64453 34.210938 L 141.64453 32.726562 C 142.61068 32.216147 143.81381 31.960938 145.25391 31.960938 z M 30.638672 32.179688 L 32.333984 32.179688 L 33.71875 35.84375 L 39.259766 35.84375 L 40.564453 32.179688 L 42.267578 32.179688 L 37.255859 45.25 L 35.669922 45.25 L 30.638672 32.179688 z M 42.550781 32.179688 L 44.373047 32.179688 L 46.560547 35.84375 C 46.761068 36.184028 46.956164 36.472005 47.144531 36.708984 C 47.332899 36.95204 47.527995 37.148872 47.728516 37.300781 C 47.92296 37.452691 48.134332 37.562066 48.365234 37.628906 C 48.59006 37.701823 48.84527 37.738281 49.130859 37.738281 L 50.388672 37.738281 L 50.388672 32.179688 L 51.919922 32.179688 L 51.919922 45.25 L 48.019531 45.25 C 47.448351 45.25 46.923394 45.177083 46.443359 45.03125 C 45.957249 44.891493 45.537978 44.674479 45.185547 44.382812 C 44.827041 44.091146 44.546224 43.726562 44.345703 43.289062 C 44.145183 42.857639 44.044922 42.350911 44.044922 41.767578 C 44.044922 41.311849 44.116103 40.892578 44.255859 40.509766 C 44.38954 40.13303 44.582682 39.79579 44.837891 39.498047 C 45.087023 39.200304 45.391494 38.945095 45.75 38.732422 C 46.102431 38.525824 46.499784 38.365451 46.943359 38.25 L 46.943359 38.212891 C 46.72461 38.115668 46.536892 38.002604 46.378906 37.875 C 46.214844 37.753473 46.059896 37.607639 45.914062 37.4375 C 45.768229 37.267361 45.626085 37.074218 45.486328 36.855469 C 45.340494 36.642795 45.178168 36.393012 45.001953 36.107422 L 42.550781 32.179688 z M 58.054688 32.179688 L 59.585938 32.179688 L 59.585938 36.972656 L 63.787109 45.25 L 62.046875 45.25 L 59.121094 39.34375 C 59.084635 39.270833 58.97895 39.002821 58.802734 38.541016 L 58.775391 38.541016 C 58.714626 38.747613 58.597873 39.015626 58.427734 39.34375 L 55.365234 45.25 L 53.744141 45.25 L 58.054688 37.009766 L 58.054688 32.179688 z M 65.666016 32.179688 L 67.542969 32.179688 L 74.269531 42.597656 C 74.43967 42.858941 74.580079 43.132379 74.689453 43.417969 L 74.744141 43.417969 C 74.695529 43.138455 74.669922 42.538628 74.669922 41.621094 L 74.669922 32.179688 L 76.201172 32.179688 L 76.201172 45.25 L 74.214844 45.25 L 67.669922 34.996094 C 67.396485 34.570747 67.221571 34.27908 67.142578 34.121094 L 67.105469 34.121094 C 67.166233 34.497829 67.197266 35.137587 67.197266 36.042969 L 67.197266 45.25 L 65.666016 45.25 L 65.666016 32.179688 z M 105.96094 32.179688 L 107.65625 32.179688 L 109.04102 35.84375 L 114.58398 35.84375 L 115.88672 32.179688 L 117.5918 32.179688 L 112.57812 45.25 L 110.99219 45.25 L 105.96094 32.179688 z M 118.63086 32.179688 L 125.41211 32.179688 L 125.41211 45.25 L 123.88086 45.25 L 123.88086 33.564453 L 118.63086 33.564453 L 118.63086 32.179688 z M 153.97656 32.179688 L 155.50781 32.179688 L 155.50781 45.25 L 153.97656 45.25 L 153.97656 32.179688 z M 158.93555 32.179688 L 160.8125 32.179688 L 167.53906 42.597656 C 167.7092 42.858941 167.84962 43.132379 167.95898 43.417969 L 168.01367 43.417969 C 167.96503 43.138455 167.93945 42.538628 167.93945 41.621094 L 167.93945 32.179688 L 169.4707 32.179688 L 169.4707 45.25 L 167.48438 45.25 L 160.93945 34.996094 C 160.66602 34.570747 160.4911 34.27908 160.41211 34.121094 L 160.375 34.121094 C 160.4358 34.497829 160.4668 35.137587 160.4668 36.042969 L 160.4668 45.25 L 158.93555 45.25 L 158.93555 32.179688 z M 134.2168 33.335938 C 132.78277 33.335938 131.65256 33.804471 130.82617 34.740234 C 129.99978 35.675997 129.58594 36.984811 129.58594 38.667969 C 129.58594 40.393662 129.98698 41.728082 130.78906 42.669922 C 131.59115 43.611761 132.6977 44.082031 134.10742 44.082031 C 135.48069 44.082031 136.5944 43.588107 137.45117 42.597656 C 138.30794 41.607206 138.73633 40.305554 138.73633 38.695312 C 138.73633 37.085071 138.32074 35.789062 137.48828 34.804688 C 136.64974 33.82639 135.55968 33.335938 134.2168 33.335938 z M 34.220703 37.21875 L 36.271484 42.789062 C 36.338322 42.971354 36.40386 43.263021 36.470703 43.664062 L 36.507812 43.664062 C 36.568577 43.293403 36.637805 43.001736 36.716797 42.789062 L 38.75 37.21875 L 34.220703 37.21875 z M 109.54297 37.21875 L 111.59375 42.789062 C 111.66059 42.971354 111.72808 43.263021 111.79492 43.664062 L 111.83008 43.664062 C 111.89081 43.293403 111.96198 43.001736 112.04102 42.789062 L 114.07227 37.21875 L 109.54297 37.21875 z M 48.310547 39.125 C 47.927735 39.125 47.575955 39.181423 47.253906 39.296875 C 46.925782 39.412326 46.643229 39.576389 46.40625 39.789062 C 46.169271 40.007812 45.98329 40.272136 45.849609 40.582031 C 45.715929 40.898003 45.650391 41.251736 45.650391 41.640625 C 45.650391 42.339409 45.878256 42.882596 46.333984 43.271484 C 46.783637 43.666449 47.436199 43.863281 48.292969 43.863281 L 50.388672 43.863281 L 50.388672 39.125 L 48.310547 39.125 z M 109.96094 54.947266 C 111.40969 54.947266 112.5819 55.413283 113.47852 56.347656 C 114.37042 57.28203 114.81641 58.518227 114.81641 60.056641 C 114.81641 61.628087 114.32108 62.916715 113.33008 63.921875 C 112.33436 64.931754 111.07504 65.4375 109.55078 65.4375 C 108.44653 65.4375 107.51791 65.257086 106.76758 64.898438 L 106.76758 63.582031 C 107.5887 64.101128 108.56241 64.361328 109.68555 64.361328 C 110.82284 64.361328 111.75374 63.96891 112.48047 63.185547 C 113.2072 62.402183 113.57031 61.38841 113.57031 60.142578 C 113.57031 58.858994 113.23342 57.849454 112.55859 57.113281 C 111.88377 56.381827 110.96867 56.015625 109.8125 56.015625 C 109.0197 56.015625 108.3324 56.174058 107.75195 56.490234 L 107.75195 59.335938 L 109.97461 59.335938 L 109.97461 60.412109 L 106.5625 60.412109 L 106.5625 55.810547 C 107.58182 55.234822 108.71511 54.947266 109.96094 54.947266 z M 123.64453 54.947266 C 123.80498 54.947266 124.00233 54.959965 124.23828 54.988281 C 124.47423 55.011876 124.71555 55.049652 124.96094 55.101562 C 125.20633 55.148752 125.43836 55.208509 125.66016 55.279297 C 125.87724 55.354802 126.05342 55.437682 126.18555 55.527344 L 126.18555 56.927734 C 126.0251 56.786163 125.83312 56.660133 125.61133 56.546875 C 125.38481 56.433618 125.14969 56.336083 124.9043 56.255859 C 124.65419 56.180354 124.40441 56.12255 124.1543 56.080078 C 123.90419 56.037603 123.67134 56.015625 123.45898 56.015625 C 122.72753 56.015625 122.18287 56.148983 121.82422 56.417969 C 121.46085 56.691674 121.2793 57.084092 121.2793 57.59375 C 121.2793 57.867456 121.3402 58.105674 121.46289 58.308594 C 121.58087 58.511513 121.74663 58.696161 121.95898 58.861328 C 122.17134 59.031214 122.42422 59.190787 122.7168 59.341797 C 123.00466 59.497526 123.31534 59.660192 123.65039 59.830078 C 124.00432 60.009402 124.33584 60.190957 124.64258 60.375 C 124.94932 60.559043 125.21489 60.76258 125.44141 60.984375 C 125.66792 61.206171 125.84834 61.45595 125.98047 61.734375 C 126.10789 62.017519 126.16992 62.349038 126.16992 62.726562 C 126.16992 63.18903 126.07011 63.589915 125.86719 63.929688 C 125.66427 64.274179 125.39674 64.557501 125.06641 64.779297 C 124.73607 65.001092 124.3614 65.164899 123.94141 65.273438 C 123.51669 65.381976 123.08535 65.4375 122.64648 65.4375 C 121.64604 65.4375 120.91673 65.316844 120.45898 65.076172 L 120.45898 63.738281 C 121.0583 64.153558 121.82653 64.361328 122.76562 64.361328 C 123.02517 64.361328 123.28537 64.332016 123.54492 64.275391 C 123.80447 64.22348 124.03536 64.136366 124.23828 64.013672 C 124.4412 63.890976 124.60696 63.732544 124.73438 63.539062 C 124.86179 63.345581 124.92578 63.110456 124.92578 62.832031 C 124.92578 62.572483 124.87759 62.348918 124.7832 62.160156 C 124.6841 61.971393 124.54032 61.798307 124.35156 61.642578 C 124.1628 61.486849 123.93305 61.335743 123.66406 61.189453 C 123.39036 61.043162 123.07658 60.88359 122.72266 60.708984 C 122.35929 60.52966 122.01507 60.340778 121.68945 60.142578 C 121.36384 59.944377 121.07938 59.725047 120.83398 59.484375 C 120.58859 59.243703 120.39547 58.976176 120.25391 58.683594 C 120.10762 58.391012 120.0332 58.057213 120.0332 57.679688 C 120.0332 57.179467 120.13188 56.753507 120.33008 56.404297 C 120.52356 56.059805 120.78799 55.779576 121.12305 55.5625 C 121.45338 55.345424 121.83538 55.190085 122.26953 55.095703 C 122.70369 54.996603 123.16319 54.947266 123.64453 54.947266 z M 60.800781 55.117188 L 61.988281 55.117188 L 61.988281 58.839844 L 65.251953 65.267578 L 63.900391 65.267578 L 61.628906 60.679688 C 61.60059 60.623062 61.51771 60.415292 61.380859 60.056641 L 61.359375 60.056641 C 61.312186 60.217088 61.221979 60.424858 61.089844 60.679688 L 58.710938 65.267578 L 57.451172 65.267578 L 60.800781 58.867188 L 60.800781 55.117188 z M 68.933594 55.117188 L 71.892578 55.117188 L 71.892578 65.267578 L 69.003906 65.267578 C 68.126161 65.267578 67.430393 65.052481 66.916016 64.623047 C 66.401638 64.193612 66.144531 63.634295 66.144531 62.945312 C 66.144531 62.369587 66.29987 61.870028 66.611328 61.445312 C 66.922786 61.020597 67.35298 60.718387 67.900391 60.539062 L 67.900391 60.509766 C 67.216127 60.429542 66.668371 60.171294 66.257812 59.732422 C 65.847254 59.298268 65.642578 58.731623 65.642578 58.033203 C 65.642578 57.164896 65.953256 56.461801 66.576172 55.923828 C 67.199088 55.385856 67.985063 55.117188 68.933594 55.117188 z M 83.337891 55.117188 L 86.027344 55.117188 L 86.027344 65.267578 L 83.224609 65.267578 C 79.647563 65.267578 77.859375 63.616981 77.859375 60.318359 C 77.859375 58.751632 78.357795 57.492313 79.353516 56.539062 C 80.344518 55.590532 81.672063 55.117187 83.337891 55.117188 z M 87.982422 55.117188 L 93.361328 55.117188 L 93.361328 65.267578 L 88.208984 65.267578 L 88.208984 64.191406 L 92.171875 64.191406 L 92.171875 60.814453 L 88.505859 60.814453 L 88.505859 59.746094 L 92.171875 59.746094 L 92.171875 56.193359 L 87.982422 56.193359 L 87.982422 55.117188 z M 96.023438 55.117188 L 97.480469 55.117188 L 102.70508 63.207031 C 102.83721 63.409951 102.94631 63.621954 103.03125 63.84375 L 103.07422 63.84375 C 103.03647 63.626673 103.01758 63.161796 103.01758 62.449219 L 103.01758 55.117188 L 104.20508 55.117188 L 104.20508 65.267578 L 102.66211 65.267578 L 97.580078 57.304688 C 97.367721 56.974353 97.23127 56.747696 97.169922 56.625 L 97.140625 56.625 C 97.187814 56.917582 97.212891 57.414048 97.212891 58.117188 L 97.212891 65.267578 L 96.023438 65.267578 L 96.023438 55.117188 z M 116.82031 55.117188 L 118.00977 55.117188 L 118.00977 65.267578 L 116.82031 65.267578 L 116.82031 55.117188 z M 127.66406 55.117188 L 133.04492 55.117188 L 133.04492 65.267578 L 127.89062 65.267578 L 127.89062 64.191406 L 131.85547 64.191406 L 131.85547 60.814453 L 128.1875 60.814453 L 128.1875 59.746094 L 131.85547 59.746094 L 131.85547 56.193359 L 127.66406 56.193359 L 127.66406 55.117188 z M 140.51953 55.117188 L 143.20898 55.117188 L 143.20898 65.267578 L 140.40625 65.267578 C 136.8292 65.267578 135.04102 63.616981 135.04102 60.318359 C 135.04102 58.751632 135.53748 57.492313 136.5332 56.539062 C 137.5242 55.590532 138.8537 55.117187 140.51953 55.117188 z M 69.089844 56.193359 C 68.391423 56.193359 67.850994 56.357166 67.46875 56.6875 C 67.081787 57.017834 66.886719 57.47115 66.886719 58.046875 C 66.886719 59.245516 67.703143 59.845703 69.335938 59.845703 L 70.703125 59.845703 L 70.703125 56.193359 L 69.089844 56.193359 z M 83.324219 56.193359 C 81.993444 56.193359 80.957689 56.549141 80.216797 57.261719 C 79.475905 57.974296 79.105469 58.983836 79.105469 60.291016 C 79.105469 62.891217 80.488538 64.191406 83.253906 64.191406 L 84.839844 64.191406 L 84.839844 56.193359 L 83.324219 56.193359 z M 140.50586 56.193359 C 139.17509 56.193359 138.13738 56.549141 137.39648 57.261719 C 136.65559 57.974296 136.28516 58.983836 136.28516 60.291016 C 136.28516 62.891217 137.66823 64.191406 140.43359 64.191406 L 142.01953 64.191406 L 142.01953 56.193359 L 140.50586 56.193359 z M 69.486328 60.914062 C 68.835098 60.914062 68.322024 61.069402 67.949219 61.380859 C 67.576413 61.697036 67.390625 62.139931 67.390625 62.710938 C 67.390625 63.697221 68.038196 64.191406 69.335938 64.191406 L 70.703125 64.191406 L 70.703125 60.914062 L 69.486328 60.914062 z M 105.54102 68.255859 C 105.73655 68.255859 105.90403 68.261195 106.04297 68.271484 L 106.04297 68.966797 C 105.8217 68.93592 105.64284 68.919922 105.50391 68.919922 C 104.77835 68.919922 104.41406 69.152116 104.41406 69.615234 C 104.41406 70.016604 104.74635 70.216797 105.41016 70.216797 C 105.46161 70.216797 105.56704 70.206126 105.72656 70.185547 L 105.72656 71.476562 C 106.91735 71.628709 107.9109 72.0985 108.68359 72.925781 C 109.63042 73.939496 110.10352 75.271326 110.10352 76.917969 C 110.10352 78.68811 109.57103 80.118083 108.50586 81.208984 C 107.44069 82.299885 106.08948 82.845703 104.45312 82.845703 C 103.40339 82.845703 102.53328 82.692271 101.84375 82.388672 L 101.84375 81.007812 C 102.6362 81.450348 103.51164 81.671875 104.46875 81.671875 C 105.73975 81.671875 106.772 81.247488 107.56445 80.398438 C 108.35175 79.549387 108.74414 78.414371 108.74414 76.994141 C 108.74414 75.645952 108.37647 74.570317 107.64062 73.767578 C 106.89964 72.969985 105.92943 72.572266 104.73047 72.572266 C 103.61899 72.572266 102.65678 72.818507 101.84375 73.3125 L 101.84375 72.054688 C 102.66011 71.623404 103.67663 71.407208 104.89258 71.40625 L 104.89258 70.789062 C 104.43975 70.789062 104.08275 70.686299 103.82031 70.480469 C 103.55273 70.274638 103.41992 69.985728 103.41992 69.615234 C 103.41992 68.70958 104.12593 68.255859 105.54102 68.255859 z M 95.701172 71.40625 C 98.387259 71.40625 99.730469 72.900939 99.730469 75.890625 L 99.730469 82.660156 L 98.433594 82.660156 L 98.433594 75.974609 C 98.433594 73.705329 97.476723 72.572266 95.5625 72.572266 C 93.715172 72.572266 92.791016 73.667282 92.791016 75.859375 L 92.791016 82.660156 L 91.494141 82.660156 L 91.494141 76.068359 C 91.494141 72.96032 92.896733 71.40625 95.701172 71.40625 z M 128.6582 71.40625 C 130.22766 71.40625 131.48678 71.922733 132.43359 72.957031 C 133.37527 73.991329 133.8457 75.337206 133.8457 76.994141 C 133.8457 78.774574 133.3646 80.195833 132.40234 81.255859 C 131.44008 82.315886 130.13154 82.845703 128.47461 82.845703 C 126.94632 82.845703 125.71654 82.329933 124.78516 81.300781 C 123.84862 80.271629 123.37891 78.925753 123.37891 77.263672 C 123.37891 75.45751 123.85734 74.030204 124.81445 72.980469 C 125.77157 71.930734 127.05272 71.40625 128.6582 71.40625 z M 138.00586 71.40625 C 139.58046 71.40625 140.84225 71.912066 141.78906 72.925781 C 142.73588 73.939496 143.20898 75.271326 143.20898 76.917969 C 143.20898 78.68811 142.6765 80.118083 141.61133 81.208984 C 140.54616 82.299885 139.19494 82.845703 137.55859 82.845703 C 136.50886 82.845703 135.63875 82.692271 134.94922 82.388672 L 134.94922 81.007812 C 135.74167 81.450348 136.61711 81.671875 137.57422 81.671875 C 138.84522 81.671875 139.87747 81.247488 140.66992 80.398438 C 141.45722 79.549387 141.84961 78.414371 141.84961 76.994141 C 141.84961 75.645952 141.48194 74.570317 140.74609 73.767578 C 140.00511 72.969985 139.03491 72.572266 137.83594 72.572266 C 136.72446 72.572266 135.76225 72.818507 134.94922 73.3125 L 134.94922 72.054688 C 135.76739 71.622443 136.78631 71.40625 138.00586 71.40625 z M 58.496094 71.591797 L 60.041016 71.591797 L 61.892578 74.693359 C 62.062388 74.981522 62.2272 75.22705 62.386719 75.427734 C 62.546238 75.633565 62.71105 75.801043 62.880859 75.929688 C 63.045523 76.058331 63.226336 76.150428 63.421875 76.207031 C 63.612268 76.268777 63.828462 76.298828 64.070312 76.298828 L 65.134766 76.298828 L 65.134766 71.591797 L 66.431641 71.591797 L 66.431641 82.660156 L 63.126953 82.660156 C 62.643252 82.660156 62.199484 82.598108 61.792969 82.474609 C 61.381308 82.356257 61.025016 82.172778 60.726562 81.925781 C 60.422962 81.678785 60.187388 81.370495 60.017578 81 C 59.847768 80.634651 59.761719 80.20493 59.761719 79.710938 C 59.761719 79.325005 59.821101 78.970667 59.939453 78.646484 C 60.05266 78.327447 60.217472 78.041205 60.433594 77.789062 C 60.64457 77.53692 60.901478 77.320727 61.205078 77.140625 C 61.503532 76.965669 61.841156 76.830191 62.216797 76.732422 L 62.216797 76.701172 C 62.03155 76.61884 61.872071 76.524077 61.738281 76.416016 C 61.599346 76.3131 61.469202 76.189003 61.345703 76.044922 C 61.222205 75.900841 61.100775 75.736029 60.982422 75.550781 C 60.858924 75.37068 60.721493 75.15982 60.572266 74.917969 L 58.496094 71.591797 z M 68.060547 71.591797 L 69.496094 71.591797 L 70.667969 74.693359 L 75.361328 74.693359 L 76.464844 71.591797 L 77.908203 71.591797 L 73.664062 82.660156 L 72.320312 82.660156 L 68.060547 71.591797 z M 83.103516 71.591797 L 84.400391 71.591797 L 84.400391 82.660156 L 81.359375 82.660156 C 80.17585 82.660156 79.259695 82.371247 78.611328 81.794922 C 77.957817 81.218597 77.630859 80.405204 77.630859 79.355469 C 77.630859 78.305734 77.993198 77.446293 78.71875 76.777344 C 79.439156 76.108395 80.414695 75.775391 81.644531 75.775391 L 83.103516 75.775391 L 83.103516 71.591797 z M 112.2793 71.591797 L 113.87109 71.591797 L 119.56641 80.414062 C 119.71048 80.63533 119.82925 80.865571 119.92188 81.107422 L 119.96875 81.107422 C 119.92758 80.870717 119.90625 80.3649 119.90625 79.587891 L 119.90625 71.591797 L 121.20312 71.591797 L 121.20312 82.660156 L 119.51953 82.660156 L 113.97852 73.976562 C 113.74696 73.616359 113.59814 73.368165 113.53125 73.234375 L 113.5 73.234375 C 113.55148 73.553412 113.57617 74.096563 113.57617 74.863281 L 113.57617 82.660156 L 112.2793 82.660156 L 112.2793 71.591797 z M 128.6582 72.572266 C 127.4438 72.572266 126.48693 72.967318 125.78711 73.759766 C 125.08728 74.552212 124.73828 75.660562 124.73828 77.085938 C 124.73828 78.547334 125.07857 79.677017 125.75781 80.474609 C 126.43706 81.272202 127.37259 81.671875 128.56641 81.671875 C 129.72935 81.671875 130.67288 81.252821 131.39844 80.414062 C 132.12399 79.575303 132.48828 78.473001 132.48828 77.109375 C 132.48828 75.745749 132.13466 74.648067 131.42969 73.814453 C 130.71957 72.985986 129.79541 72.572266 128.6582 72.572266 z M 71.09375 75.859375 L 72.830078 80.576172 C 72.886683 80.730545 72.943398 80.976786 73 81.316406 L 73.03125 81.316406 C 73.082706 81.002514 73.142088 80.756273 73.208984 80.576172 L 74.929688 75.859375 L 71.09375 75.859375 z M 81.746094 76.947266 C 80.850732 76.947266 80.167483 77.152079 79.699219 77.558594 C 79.225809 77.970255 78.990234 78.548787 78.990234 79.294922 C 78.990234 80.756318 79.855009 81.486328 81.583984 81.486328 L 83.103516 81.486328 L 83.103516 76.947266 L 81.746094 76.947266 z M 63.375 77.472656 C 63.050817 77.472656 62.751241 77.521371 62.478516 77.619141 C 62.200645 77.71691 61.962403 77.857007 61.761719 78.037109 C 61.561034 78.222357 61.404222 78.444597 61.291016 78.707031 C 61.177809 78.974611 61.121094 79.274188 61.121094 79.603516 C 61.121094 80.195278 61.313287 80.655046 61.699219 80.984375 C 62.080005 81.318849 62.633823 81.486328 63.359375 81.486328 L 65.134766 81.486328 L 65.134766 77.472656 L 63.375 77.472656 z "
     transform="scale(0.93750079)" />
  <g
     id="g4766"
     transform="translate(-163.44791,-486.22688)" />
  <path
     id="path4567"
     style="fill:#000000;fill-opacity:1;stroke:#000000;stroke-width:0.096;stroke-miterlimit:4;stroke-dasharray:none"
     d="M 34.394531 110.97852 L 34.394531 122.97852 L 15.828125 122.97852 L 15.828125 140.59961 L 3.828125 140.59961 L 3.828125 170.22266 L 15.828125 170.22266 L 15.828125 189.11914 L 3.828125 189.11914 L 3.828125 208.01758 L 15.828125 208.01758 L 15.828125 226.91406 L 3.828125 226.91406 L 3.828125 245.8125 L 15.828125 245.8125 L 15.828125 264.71094 L 3.828125 264.71094 L 3.828125 283.60742 L 15.828125 283.60742 L 15.828125 302.50586 L 3.828125 302.50586 L 3.828125 321.40234 L 15.828125 321.40234 L 15.828125 340.30078 L 3.828125 340.30078 L 3.828125 359.19727 L 15.828125 359.19727 L 15.828125 378.0957 L 3.828125 378.0957 L 3.828125 407.71875 L 15.828125 407.71875 L 15.828125 425.33984 L 34.394531 425.33984 L 34.394531 437.33984 L 64.962891 437.33984 L 64.962891 425.33984 L 83.859375 425.33984 L 83.859375 437.33984 L 102.75781 437.33984 L 102.75781 425.33984 L 121.6543 425.33984 L 121.6543 437.33984 L 140.55273 437.33984 L 140.55273 425.33984 L 159.44922 425.33984 L 159.44922 437.33984 L 178.34766 437.33984 L 178.34766 425.33984 L 197.24609 425.33984 L 197.24609 437.33984 L 216.14258 437.33984 L 216.14258 425.33984 L 235.04102 425.33984 L 235.04102 437.33984 L 253.9375 437.33984 L 253.9375 425.33984 L 272.83594 425.33984 L 272.83594 437.33984 L 291.73438 437.33984 L 291.73438 425.33984 L 310.63086 425.33984 L 310.63086 437.33984 L 329.5293 437.33984 L 329.5293 425.33984 L 348.42578 425.33984 L 348.42578 437.33984 L 367.32422 437.33984 L 367.32422 425.33984 L 386.22266 425.33984 L 386.22266 437.33984 L 405.11914 437.33984 L 405.11914 425.33984 L 424.01758 425.33984 L 424.01758 437.33984 L 454.58398 437.33984 L 454.58398 425.33984 L 473.15039 425.33984 L 473.15039 407.71875 L 485.15039 407.71875 L 485.15039 378.0957 L 473.15039 378.0957 L 473.15039 359.19727 L 485.15039 359.19727 L 485.15039 340.30078 L 473.15039 340.30078 L 473.15039 321.40234 L 485.15039 321.40234 L 485.15039 302.50586 L 473.15039 302.50586 L 473.15039 283.60742 L 485.15039 283.60742 L 485.15039 264.71094 L 473.15039 264.71094 L 473.15039 245.8125 L 485.15039 245.8125 L 485.15039 226.91406 L 473.15039 226.91406 L 473.15039 208.01758 L 485.15039 208.01758 L 485.15039 189.11914 L 473.15039 189.11914 L 473.15039 170.22266 L 485.15039 170.22266 L 485.15039 140.59961 L 473.15039 140.59961 L 473.15039 122.97852 L 454.58398 122.97852 L 454.58398 110.97852 L 424.01758 110.97852 L 424.01758 122.97852 L 405.11914 122.97852 L 405.11914 110.97852 L 386.22266 110.97852 L 386.22266 122.97852 L 367.32422 122.97852 L 367.32422 110.97852 L 348.42578 110.97852 L 348.42578 122.97852 L 329.5293 122.97852 L 329.5293 110.97852 L 310.63086 110.97852 L 310.63086 122.97852 L 291.73438 122.97852 L 291.73438 110.97852 L 272.83594 110.97852 L 272.83594 122.97852 L 253.9375 122.97852 L 253.9375 110.97852 L 235.04102 110.97852 L 235.04102 122.97852 L 216.14258 122.97852 L 216.14258 110.97852 L 197.24609 110.97852 L 197.24609 122.97852 L 178.34766 122.97852 L 178.34766 110.97852 L 159.44922 110.97852 L 159.44922 122.97852 L 140.55273 122.97852 L 140.55273 110.97852 L 121.6543 110.97852 L 121.6543 122.97852 L 102.75781 122.97852 L 102.75781 110.97852 L 83.859375 110.97852 L 83.859375 122.97852 L 64.962891 122.97852 L 64.962891 110.97852 L 34.394531 110.97852 z M 277.71875 143.50391 C 278.59975 143.5166 279.47548 143.87168 280.125 144.56836 C 314.6847 181.63933 314.69737 239.31572 280.125 276.40039 C 278.82595 277.79372 276.6245 277.82177 275.27734 276.47461 L 268.11133 269.30664 C 266.82531 268.02068 266.79741 265.95337 268.03125 264.61719 C 296.24066 234.06634 296.23348 186.89264 268.03125 156.34961 C 266.79744 155.01343 266.82536 152.94612 268.11133 151.66016 L 275.27734 144.49414 C 275.95082 143.82061 276.83775 143.49121 277.71875 143.50391 z M 239.50586 167.15625 C 240.39641 167.17693 241.27815 167.54733 241.92188 168.26562 C 263.41492 192.24719 263.43939 228.69237 241.92188 252.70117 C 240.63443 254.13777 238.39723 254.18434 237.0332 252.82031 L 229.85938 245.64453 C 228.60865 244.39403 228.52591 242.38302 229.69141 241.05273 C 244.97679 223.60541 245.01097 197.40258 229.69141 179.91602 C 228.52591 178.58576 228.60886 176.5728 229.85938 175.32227 L 237.0332 168.14648 C 237.71522 167.46447 238.61531 167.13557 239.50586 167.15625 z M 196.52734 196.98047 C 203.98489 196.98047 210.0293 203.02685 210.0293 210.48438 C 210.0293 217.94189 203.98489 223.98633 196.52734 223.98633 C 189.06979 223.98633 183.02344 217.94189 183.02344 210.48438 C 183.02344 203.02685 189.06979 196.98047 196.52734 196.98047 z M 203.01758 290.5293 C 206.01162 290.5293 208.42144 291.53654 210.24609 293.55273 C 212.08083 295.56892 212.99805 298.20674 212.99805 301.46289 C 212.99805 305.00131 212.0606 307.797 210.18555 309.85352 C 208.31048 311.91003 205.79955 312.93945 202.6543 312.93945 C 199.5796 312.93945 197.11662 311.92666 195.26172 309.90039 C 193.41691 307.87412 192.49414 305.23826 192.49414 301.99219 C 192.49414 298.50418 193.43713 295.72121 195.32227 293.64453 C 197.20741 291.56785 199.77151 290.5293 203.01758 290.5293 z M 284.41602 290.5293 C 286.47253 290.5293 288.17649 290.8271 289.52734 291.42188 L 289.52734 294.12891 C 287.97488 293.26194 286.26178 292.82813 284.38672 292.82812 C 281.89672 292.82812 279.87473 293.65891 278.32227 295.32227 C 276.77987 296.98562 276.00977 299.20984 276.00977 301.99219 C 276.00977 304.6334 276.7303 306.73987 278.17188 308.3125 C 279.62354 309.87505 281.52418 310.65625 283.87305 310.65625 C 286.05053 310.65625 287.93455 310.17285 289.52734 309.20508 L 289.52734 311.66797 C 287.92447 312.51477 285.92824 312.93945 283.53906 312.93945 C 280.45429 312.93945 277.98576 311.94689 276.13086 309.96094 C 274.27596 307.97499 273.34766 305.36849 273.34766 302.14258 C 273.34766 298.67473 274.39175 295.87154 276.47852 293.73438 C 278.56528 291.59721 281.21027 290.5293 284.41602 290.5293 z M 389.31445 290.5293 C 391.37097 290.5293 393.07493 290.8271 394.42578 291.42188 L 394.42578 294.12891 C 392.87331 293.26194 391.15826 292.82813 389.2832 292.82812 C 386.79321 292.82812 384.77317 293.65891 383.2207 295.32227 C 381.67831 296.98562 380.90625 299.20984 380.90625 301.99219 C 380.90625 304.6334 381.62678 306.73987 383.06836 308.3125 C 384.52002 309.87505 386.42067 310.65625 388.76953 310.65625 C 390.94702 310.65625 392.83299 310.17285 394.42578 309.20508 L 394.42578 311.66797 C 392.82291 312.51477 390.82669 312.93945 388.4375 312.93945 C 385.35272 312.93945 382.88224 311.94689 381.02734 309.96094 C 379.17245 307.97499 378.24609 305.36849 378.24609 302.14258 C 378.24609 298.67473 379.28824 295.87154 381.375 293.73438 C 383.46176 291.59721 386.10871 290.5293 389.31445 290.5293 z M 79.974609 290.89258 L 95.021484 290.89258 L 95.021484 293.19141 L 88.759766 293.19141 L 88.759766 312.57617 L 86.220703 312.57617 L 86.220703 293.19141 L 79.974609 293.19141 L 79.974609 290.89258 z M 102.11328 290.89258 L 104.74414 290.89258 L 113.0918 312.57617 L 110.27734 312.57617 L 107.98047 306.49805 L 98.785156 306.49805 L 96.623047 312.57617 L 93.796875 312.57617 L 102.11328 290.89258 z M 116.28125 290.89258 L 122.24023 290.89258 C 124.55886 290.89258 126.35285 291.45687 127.62305 292.58594 C 128.90333 293.715 129.54297 295.30676 129.54297 297.36328 C 129.54297 299.4198 128.83157 301.10354 127.41016 302.41406 C 125.99882 303.72459 124.08904 304.38086 121.67969 304.38086 L 118.82227 304.38086 L 118.82227 312.57617 L 116.28125 312.57617 L 116.28125 290.89258 z M 133.625 290.89258 L 144.63477 290.89258 L 144.63477 293.19141 L 136.16602 293.19141 L 136.16602 300.4043 L 144 300.4043 L 144 302.6875 L 136.16602 302.6875 L 136.16602 310.27734 L 145.11719 310.27734 L 145.11719 312.57617 L 133.625 312.57617 L 133.625 290.89258 z M 147.96094 290.89258 L 163.44531 290.89258 L 163.44531 291.49609 L 150.74414 310.27734 L 163.14258 310.27734 L 163.14258 312.57617 L 146.94727 312.57617 L 146.94727 311.86523 L 159.54492 293.19141 L 147.96094 293.19141 L 147.96094 290.89258 z M 172.86523 290.89258 L 175.69336 290.89258 L 181.69727 308.08594 C 181.8888 308.64039 182.03396 309.28004 182.13477 310.00586 L 182.19531 310.00586 C 182.27596 309.401 182.44329 308.75027 182.69531 308.05469 L 188.81836 290.89258 L 191.55664 290.89258 L 183.52734 312.57617 L 180.72852 312.57617 L 172.86523 290.89258 z M 213.64844 290.89258 L 228.69336 290.89258 L 228.69336 293.19141 L 222.43359 293.19141 L 222.43359 312.57617 L 219.89453 312.57617 L 219.89453 293.19141 L 213.64844 293.19141 L 213.64844 290.89258 z M 232.0957 290.89258 L 238.56836 290.89258 C 239.51597 290.89258 240.38915 291.01392 241.18555 291.25586 C 241.99202 291.48772 242.68679 291.84424 243.27148 292.32812 C 243.86626 292.81201 244.32944 293.41675 244.66211 294.14258 C 244.99478 294.85833 245.16211 295.7002 245.16211 296.66797 C 245.16211 297.42404 245.04632 298.12076 244.81445 298.75586 C 244.59267 299.38088 244.26911 299.93963 243.8457 300.43359 C 243.43238 300.92757 242.92876 301.35029 242.33398 301.70312 C 241.74929 302.04588 241.08943 302.31432 240.35352 302.50586 L 240.35352 302.56641 C 240.71643 302.7277 241.02891 302.9133 241.29102 303.125 C 241.5632 303.32661 241.82056 303.56929 242.0625 303.85156 C 242.30444 304.13383 242.53962 304.45544 242.77148 304.81836 C 243.01343 305.17119 243.28187 305.58479 243.57422 306.05859 L 247.64062 312.57617 L 244.61719 312.57617 L 240.98828 306.49805 C 240.65561 305.93351 240.33204 305.45371 240.01953 305.06055 C 239.70702 304.65731 239.38541 304.33015 239.05273 304.07812 C 238.73015 303.8261 238.37722 303.64409 237.99414 303.5332 C 237.62114 303.41223 237.19842 303.35156 236.72461 303.35156 L 234.63672 303.35156 L 234.63672 312.57617 L 232.0957 312.57617 L 232.0957 290.89258 z M 250.62109 290.89258 L 261.62891 290.89258 L 261.62891 293.19141 L 253.16016 293.19141 L 253.16016 300.4043 L 260.99414 300.4043 L 260.99414 302.6875 L 253.16016 302.6875 L 253.16016 310.27734 L 262.11328 310.27734 L 262.11328 312.57617 L 250.62109 312.57617 L 250.62109 290.89258 z M 299.75 290.89258 L 302.38086 290.89258 L 310.72852 312.57617 L 307.91602 312.57617 L 305.61719 306.49805 L 296.42383 306.49805 L 294.26172 312.57617 L 291.43359 312.57617 L 299.75 290.89258 z M 313.91797 290.89258 L 320.39062 290.89258 C 321.33824 290.89258 322.20947 291.01392 323.00586 291.25586 C 323.81234 291.48772 324.50905 291.84424 325.09375 292.32812 C 325.68852 292.81201 326.1517 293.41675 326.48438 294.14258 C 326.81705 294.85833 326.98438 295.7002 326.98438 296.66797 C 326.98438 297.42404 326.86858 298.12076 326.63672 298.75586 C 326.41494 299.38088 326.09137 299.93963 325.66797 300.43359 C 325.25465 300.92757 324.75103 301.35029 324.15625 301.70312 C 323.57155 302.04588 322.91169 302.31432 322.17578 302.50586 L 322.17578 302.56641 C 322.5387 302.7277 322.85118 302.9133 323.11328 303.125 C 323.38547 303.32661 323.64282 303.56929 323.88477 303.85156 C 324.12671 304.13383 324.36189 304.45544 324.59375 304.81836 C 324.83569 305.17119 325.10413 305.58479 325.39648 306.05859 L 329.46289 312.57617 L 326.43945 312.57617 L 322.81055 306.49805 C 322.47788 305.93351 322.15431 305.45371 321.8418 305.06055 C 321.52929 304.65731 321.20767 304.33015 320.875 304.07812 C 320.55241 303.8261 320.19948 303.64409 319.81641 303.5332 C 319.44341 303.41223 319.02068 303.35156 318.54688 303.35156 L 316.45898 303.35156 L 316.45898 312.57617 L 313.91797 312.57617 L 313.91797 290.89258 z M 328.82812 290.89258 L 343.875 290.89258 L 343.875 293.19141 L 337.61328 293.19141 L 337.61328 312.57617 L 335.07422 312.57617 L 335.07422 293.19141 L 328.82812 293.19141 L 328.82812 290.89258 z M 347.27734 290.89258 L 358.28516 290.89258 L 358.28516 293.19141 L 349.81641 293.19141 L 349.81641 300.4043 L 357.65039 300.4043 L 357.65039 302.6875 L 349.81641 302.6875 L 349.81641 310.27734 L 358.76953 310.27734 L 358.76953 312.57617 L 347.27734 312.57617 L 347.27734 290.89258 z M 371.42578 290.89258 L 373.9668 290.89258 L 373.9668 312.57617 L 371.42578 312.57617 L 371.42578 290.89258 z M 398.8418 290.89258 L 401.38086 290.89258 L 401.38086 312.57617 L 398.8418 312.57617 L 398.8418 290.89258 z M 202.83594 292.82812 C 200.55764 292.82812 198.70852 293.64977 197.28711 295.29297 C 195.86569 296.93617 195.1543 299.09222 195.1543 301.76367 C 195.1543 304.43513 195.84547 306.58759 197.22656 308.2207 C 198.61774 309.84374 200.4264 310.65625 202.6543 310.65625 C 205.0334 310.65625 206.91024 309.87864 208.28125 308.32617 C 209.65226 306.7737 210.33594 304.60298 210.33594 301.81055 C 210.33594 298.94755 209.67248 296.73442 208.3418 295.17188 C 207.01111 293.60932 205.17472 292.82813 202.83594 292.82812 z M 118.82227 293.19141 L 118.82227 302.08203 L 121.48242 302.08203 C 123.2365 302.08203 124.57287 301.68312 125.49023 300.88672 C 126.41769 300.08025 126.88086 298.94612 126.88086 297.48438 C 126.88086 294.62138 125.18799 293.19141 121.80078 293.19141 L 118.82227 293.19141 z M 234.63672 293.19141 L 234.63672 301.05273 L 238.08398 301.05273 C 238.71908 301.05273 239.3036 300.95716 239.83789 300.76562 C 240.38226 300.57409 240.85293 300.30205 241.24609 299.94922 C 241.63925 299.5863 241.94619 299.14889 242.16797 298.63477 C 242.38975 298.11055 242.5 297.52604 242.5 296.88086 C 242.5 295.72155 242.12131 294.81901 241.36523 294.17383 C 240.61924 293.51856 239.53665 293.19141 238.11523 293.19141 L 234.63672 293.19141 z M 316.45898 293.19141 L 316.45898 301.05273 L 319.90625 301.05273 C 320.54135 301.05273 321.12587 300.95716 321.66016 300.76562 C 322.20453 300.57409 322.67325 300.30205 323.06641 299.94922 C 323.45956 299.5863 323.76845 299.14889 323.99023 298.63477 C 324.21202 298.11055 324.32227 297.52604 324.32227 296.88086 C 324.32227 295.72155 323.94357 294.81901 323.1875 294.17383 C 322.44151 293.51856 321.35892 293.19141 319.9375 293.19141 L 316.45898 293.19141 z M 103.35352 293.52344 C 103.25271 294.13838 103.13496 294.62177 103.00391 294.97461 L 99.632812 304.21484 L 107.14844 304.21484 L 103.74609 294.97461 C 103.6352 294.67217 103.52495 294.18878 103.41406 293.52344 L 103.35352 293.52344 z M 300.99023 293.52344 C 300.88943 294.13838 300.77364 294.62177 300.64258 294.97461 L 297.26953 304.21484 L 304.78516 304.21484 L 301.38281 294.97461 C 301.27192 294.67217 301.16167 294.18878 301.05078 293.52344 L 300.99023 293.52344 z M 196.51562 325.68359 C 199.10621 325.68359 201.25146 326.05935 202.95312 326.80859 L 202.95312 330.2168 C 200.99748 329.12468 198.83857 328.58008 196.47656 328.58008 C 193.33991 328.58008 190.79353 329.62732 188.83789 331.72266 C 186.89494 333.81799 185.92383 336.61813 185.92383 340.12305 C 185.92383 343.45018 186.83248 346.1049 188.64844 348.08594 C 190.47709 350.05428 192.87122 351.03711 195.83008 351.03711 C 198.57306 351.03711 200.94668 350.42809 202.95312 349.20898 L 202.95312 352.31445 C 200.93398 353.38117 198.41982 353.91406 195.41016 353.91406 C 191.52427 353.91406 188.41279 352.66381 186.07617 350.16211 C 183.73956 347.66041 182.57227 344.37617 182.57227 340.3125 C 182.57227 335.94405 183.88498 332.41484 186.51367 329.72266 C 189.14236 327.03047 192.47735 325.68359 196.51562 325.68359 z M 106.0918 326.14062 L 125.04492 326.14062 L 125.04492 329.03711 L 117.1582 329.03711 L 117.1582 353.45703 L 113.95898 353.45703 L 113.95898 329.03711 L 106.0918 329.03711 L 106.0918 326.14062 z M 133.97852 326.14062 L 137.29297 326.14062 L 147.80859 353.45703 L 144.26562 353.45703 L 141.36914 345.79883 L 129.78906 345.79883 L 127.06445 353.45703 L 123.50195 353.45703 L 133.97852 326.14062 z M 151.82812 326.14062 L 159.33203 326.14062 C 162.2528 326.14062 164.51321 326.8531 166.11328 328.27539 C 167.72605 329.69768 168.5332 331.70433 168.5332 334.29492 C 168.5332 336.88551 167.63821 339.00538 165.84766 340.65625 C 164.0698 342.30711 161.66202 343.13281 158.62695 343.13281 L 155.02734 343.13281 L 155.02734 353.45703 L 151.82812 353.45703 L 151.82812 326.14062 z M 215.83008 326.14062 L 219.14453 326.14062 L 229.66016 353.45703 L 226.11719 353.45703 L 223.2207 345.79883 L 211.63867 345.79883 L 208.91602 353.45703 L 205.35352 353.45703 L 215.83008 326.14062 z M 233.67773 326.14062 L 241.83203 326.14062 C 243.02573 326.14062 244.12373 326.29288 245.12695 326.59766 C 246.14287 326.88974 247.01932 327.34162 247.75586 327.95117 C 248.5051 328.56072 249.08875 329.322 249.50781 330.23633 C 249.92688 331.13795 250.13672 332.19887 250.13672 333.41797 C 250.13672 334.37039 249.9913 335.24684 249.69922 336.04688 C 249.41984 336.83422 249.01188 337.53791 248.47852 338.16016 C 247.95786 338.78241 247.32346 339.31726 246.57422 339.76172 C 245.83768 340.19349 245.00516 340.5302 244.07812 340.77148 L 244.07812 340.8457 C 244.53529 341.04889 244.92959 341.28411 245.25977 341.55078 C 245.60263 341.80476 245.92765 342.10927 246.23242 342.46484 C 246.5372 342.82041 246.83487 343.22839 247.12695 343.68555 C 247.43173 344.13001 247.76845 344.64924 248.13672 345.24609 L 253.25977 353.45703 L 249.45117 353.45703 L 244.87891 345.79883 C 244.45984 345.08768 244.05383 344.48549 243.66016 343.99023 C 243.26649 343.48227 242.86047 343.06943 242.44141 342.75195 C 242.03504 342.43448 241.58999 342.2061 241.10742 342.06641 C 240.63756 341.91402 240.10467 341.83789 239.50781 341.83789 L 236.87891 341.83789 L 236.87891 353.45703 L 233.67773 353.45703 L 233.67773 326.14062 z M 257.01367 326.14062 L 264.55664 326.14062 C 274.18247 326.14062 278.99414 330.58044 278.99414 339.45703 C 278.99414 343.67309 277.65605 347.06371 274.97656 349.62891 C 272.30978 352.1814 268.73469 353.45703 264.25195 353.45703 L 257.01367 353.45703 L 257.01367 326.14062 z M 295.05273 326.14062 L 298.25195 326.14062 L 298.25195 338.12305 L 312.38672 338.12305 L 312.38672 326.14062 L 315.58789 326.14062 L 315.58789 353.45703 L 312.38672 353.45703 L 312.38672 341 L 298.25195 341 L 298.25195 353.45703 L 295.05273 353.45703 L 295.05273 326.14062 z M 322.75 326.14062 L 336.61719 326.14062 L 336.61719 329.03711 L 325.94922 329.03711 L 325.94922 338.12305 L 335.81641 338.12305 L 335.81641 341 L 325.94922 341 L 325.94922 350.56055 L 337.22656 350.56055 L 337.22656 353.45703 L 322.75 353.45703 L 322.75 326.14062 z M 342.48438 326.14062 L 350.63672 326.14062 C 351.83042 326.14062 352.92843 326.29288 353.93164 326.59766 C 354.94756 326.88974 355.82401 327.34162 356.56055 327.95117 C 357.30979 328.56072 357.89344 329.322 358.3125 330.23633 C 358.73157 331.13795 358.94141 332.19887 358.94141 333.41797 C 358.94141 334.37039 358.79599 335.24684 358.50391 336.04688 C 358.22453 336.83422 357.81656 337.53791 357.2832 338.16016 C 356.76255 338.78241 356.12815 339.31726 355.37891 339.76172 C 354.64237 340.19349 353.81179 340.5302 352.88477 340.77148 L 352.88477 340.8457 C 353.34192 341.04889 353.73428 341.28411 354.06445 341.55078 C 354.40732 341.80476 354.73233 342.10927 355.03711 342.46484 C 355.34188 342.82041 355.63957 343.22839 355.93164 343.68555 C 356.23642 344.13001 356.57314 344.64924 356.94141 345.24609 L 362.06445 353.45703 L 358.25586 353.45703 L 353.68359 345.79883 C 353.26453 345.08768 352.85851 344.48549 352.46484 343.99023 C 352.07117 343.48227 351.66516 343.06943 351.24609 342.75195 C 350.83973 342.43448 350.39468 342.2061 349.91211 342.06641 C 349.44225 341.91402 348.90935 341.83789 348.3125 341.83789 L 345.68359 341.83789 L 345.68359 353.45703 L 342.48438 353.45703 L 342.48438 326.14062 z M 365.81836 326.14062 L 379.68555 326.14062 L 379.68555 329.03711 L 369.01758 329.03711 L 369.01758 338.12305 L 378.88477 338.12305 L 378.88477 341 L 369.01758 341 L 369.01758 350.56055 L 380.29492 350.56055 L 380.29492 353.45703 L 365.81836 353.45703 L 365.81836 326.14062 z M 155.02734 329.03711 L 155.02734 340.23633 L 158.38086 340.23633 C 160.59048 340.23633 162.27212 339.73564 163.42773 338.73242 C 164.59604 337.7165 165.17969 336.28862 165.17969 334.44727 C 165.17969 330.84075 163.04615 329.03711 158.7793 329.03711 L 155.02734 329.03711 z M 236.87891 329.03711 L 236.87891 338.94141 L 241.22266 338.94141 C 242.02269 338.94141 242.7586 338.82136 243.43164 338.58008 C 244.11739 338.3388 244.70786 337.99525 245.20312 337.55078 C 245.69839 337.09362 246.08585 336.54218 246.36523 335.89453 C 246.64461 335.23419 246.7832 334.49633 246.7832 333.68359 C 246.7832 332.22321 246.30789 331.08813 245.35547 330.27539 C 244.41574 329.44995 243.05032 329.03711 241.25977 329.03711 L 236.87891 329.03711 z M 260.21289 329.03711 L 260.21289 350.56055 L 264.28906 350.56055 C 267.87017 350.56055 270.6586 349.60309 272.65234 347.68555 C 274.64608 345.76799 275.64258 343.05082 275.64258 339.5332 C 275.64258 332.53606 271.92207 329.03711 264.48047 329.03711 L 260.21289 329.03711 z M 345.68359 329.03711 L 345.68359 338.94141 L 350.02734 338.94141 C 350.82738 338.94141 351.56328 338.82136 352.23633 338.58008 C 352.92207 338.3388 353.51255 337.99525 354.00781 337.55078 C 354.50307 337.09362 354.89055 336.54218 355.16992 335.89453 C 355.4493 335.23419 355.58789 334.49633 355.58789 333.68359 C 355.58789 332.22321 355.11258 331.08813 354.16016 330.27539 C 353.22043 329.44995 351.85501 329.03711 350.06445 329.03711 L 345.68359 329.03711 z M 135.54102 329.45508 C 135.41403 330.22971 135.2686 330.84069 135.10352 331.28516 L 130.85547 342.92383 L 140.32227 342.92383 L 136.03516 331.28516 C 135.89547 330.90419 135.75688 330.29321 135.61719 329.45508 L 135.54102 329.45508 z M 217.39258 329.45508 C 217.26559 330.22971 217.11822 330.84069 216.95312 331.28516 L 212.70703 342.92383 L 222.17383 342.92383 L 217.88672 331.28516 C 217.74704 330.90419 217.60844 330.29321 217.46875 329.45508 L 217.39258 329.45508 z M 241.91211 371.17188 A 9.400819 9.400819 0 0 1 241.98242 371.17188 A 9.400819 9.400819 0 0 1 251.38477 380.57227 A 9.400819 9.400819 0 0 1 241.98242 389.97461 A 9.400819 9.400819 0 0 1 232.58203 380.57227 A 9.400819 9.400819 0 0 1 241.91211 371.17188 z M 291.04688 371.17188 A 9.400819 9.400819 0 0 1 291.11719 371.17188 A 9.400819 9.400819 0 0 1 300.51758 380.57227 A 9.400819 9.400819 0 0 1 291.11719 389.97461 A 9.400819 9.400819 0 0 1 281.7168 380.57227 A 9.400819 9.400819 0 0 1 291.04688 371.17188 z M 340.17969 371.17188 A 9.400819 9.400819 0 0 1 340.25 371.17188 A 9.400819 9.400819 0 0 1 349.65234 380.57227 A 9.400819 9.400819 0 0 1 340.25 389.97461 A 9.400819 9.400819 0 0 1 330.84961 380.57227 A 9.400819 9.400819 0 0 1 340.17969 371.17188 z "
     transform="scale(0.93750079)" />
</svg>
